<svg width="120" height="60" viewBox="0 0 120 60" fill="none" xmlns="http://www.w3.org/2000/svg">
  <defs>
    <linearGradient id="gradient1" x1="0%" y1="0%" x2="100%" y2="100%">
      <stop offset="0%" stop-color="#f59e0b"/>
      <stop offset="50%" stop-color="#10b981"/>
      <stop offset="100%" stop-color="#6b7280"/>
    </linearGradient>
    <linearGradient id="gradient2" x1="100%" y1="0%" x2="0%" y2="100%">
      <stop offset="0%" stop-color="#10b981"/>
      <stop offset="50%" stop-color="#f59e0b"/>
      <stop offset="100%" stop-color="#6b7280"/>
    </linearGradient>
  </defs>
  
  <!-- 左側圓角矩形 -->
  <path d="M15 10 L35 10 Q45 10 45 20 L45 25 L35 35 Q25 45 15 35 L15 25 Q15 15 25 15 L35 15" 
        fill="url(#gradient1)" 
        stroke="none"/>
  
  <!-- 右側圓角矩形 -->
  <path d="M75 25 L95 25 Q105 25 105 35 L105 40 L95 50 Q85 60 75 50 L75 45 Q75 35 85 35 L95 35" 
        fill="url(#gradient2)" 
        stroke="none"/>
  
  <!-- 中央連接元素 -->
  <rect x="40" y="20" width="15" height="8" rx="4" fill="url(#gradient1)"/>
  <rect x="65" y="32" width="15" height="8" rx="4" fill="url(#gradient2)"/>
</svg>
